<?xml version="1.0" encoding="UTF-8" standalone="no"?>
<!DOCTYPE svg PUBLIC "-//W3C//DTD SVG 1.1//EN" "http://www.w3.org/Graphics/SVG/1.1/DTD/svg11.dtd">
<svg width="100%" height="100%" viewBox="0 0 220 212" version="1.1" xmlns="http://www.w3.org/2000/svg" xmlns:xlink="http://www.w3.org/1999/xlink" xml:space="preserve" xmlns:serif="http://www.serif.com/" style="fill-rule:evenodd;clip-rule:evenodd;stroke-linejoin:round;stroke-miterlimit:2;">
    <g transform="matrix(1,0,0,1,-58.0017,-459.287)">
        <g transform="matrix(0.493958,-0.121096,0.121096,0.493958,-95.1033,361.72)">
            <ellipse cx="256.871" cy="612.449" rx="95.407" ry="72.449" style="fill:white;"/>
        </g>
        <g transform="matrix(0.417107,-0.0306512,0.037273,0.507217,-58.275,325.418)">
            <path d="M452.261,394.824C452.261,386.316 443.861,379.409 433.515,379.409L396.023,379.409C385.676,379.409 377.277,386.316 377.277,394.824L377.277,613.42C377.277,621.929 385.676,628.836 396.023,628.836L433.515,628.836C443.861,628.836 452.261,621.929 452.261,613.42L452.261,394.824Z" style="fill:white;"/>
        </g>
        <g transform="matrix(0.277551,-0.17485,0.158449,0.251517,54.8908,440.606)">
            <path d="M452.261,400.095C452.261,388.678 443.861,379.409 433.515,379.409L396.023,379.409C385.676,379.409 377.277,388.678 377.277,400.095L377.277,608.15C377.277,619.567 385.676,628.836 396.023,628.836L433.515,628.836C443.861,628.836 452.261,619.567 452.261,608.15L452.261,400.095Z" style="fill:white;"/>
        </g>
        <g transform="matrix(0.277837,-0.17503,0.169129,0.268469,-57.5396,467.726)">
            <path d="M452.261,398.809C452.261,388.102 443.861,379.409 433.515,379.409L396.023,379.409C385.676,379.409 377.277,388.102 377.277,398.809L377.277,609.436C377.277,620.143 385.676,628.836 396.023,628.836L433.515,628.836C443.861,628.836 452.261,620.143 452.261,609.436L452.261,398.809Z" style="fill:white;"/>
        </g>
        <g transform="matrix(0.493958,-0.121096,0.121096,0.493958,13.1782,324.107)">
            <ellipse cx="256.871" cy="612.449" rx="95.407" ry="72.449" style="fill:white;"/>
        </g>
        <g transform="matrix(0.407259,-0.0299275,0.037273,0.507217,53.722,291.065)">
            <path d="M452.261,394.46C452.261,386.153 443.861,379.409 433.515,379.409L396.023,379.409C385.676,379.409 377.277,386.153 377.277,394.46L377.277,613.784C377.277,622.092 385.676,628.836 396.023,628.836L433.515,628.836C443.861,628.836 452.261,622.092 452.261,613.784L452.261,394.46Z" style="fill:white;"/>
        </g>
    </g>
</svg>
