<?xml version="1.0" encoding="UTF-8" standalone="no"?>
<!DOCTYPE svg PUBLIC "-//W3C//DTD SVG 1.1//EN" "http://www.w3.org/Graphics/SVG/1.1/DTD/svg11.dtd">
<svg width="100%" height="100%" viewBox="0 0 244 248" version="1.1" xmlns="http://www.w3.org/2000/svg" xmlns:xlink="http://www.w3.org/1999/xlink" xml:space="preserve" xmlns:serif="http://www.serif.com/" style="fill-rule:evenodd;clip-rule:evenodd;stroke-linejoin:round;stroke-miterlimit:2;">
    <g transform="matrix(1,0,0,1,-560.243,-78.6991)">
        <g transform="matrix(0.737709,0,0,0.833144,202.529,30.7274)">
            <path d="M633.727,119.094C633.727,119.094 654.146,180.595 600.892,190.626C547.637,200.658 540,212.69 540,212.69C542.885,238.895 593.836,197.402 619.949,253.382C629.941,274.803 594.544,355.071 617.883,339.607C617.883,339.607 644.183,278.213 681.522,273.322C738.154,265.902 772.922,320.932 772.922,320.932C785.075,317.438 747.034,268.753 747.727,239.215C748.428,209.34 756.577,190.481 814.504,184.588C813.316,150.777 732.669,179.309 698.467,157.329C641.643,120.811 637.895,86.311 633.727,119.094Z" style="fill:white;"/>
        </g>
        <g transform="matrix(1,0,0,1,14.0938,24.7124)">
            <path d="M719.553,132.617L749.201,53.987L766.914,56.492L719.553,132.617Z" style="fill:white;"/>
        </g>
        <g transform="matrix(-0.837002,-0.5472,0.5472,-0.837002,1171.24,741.9)">
            <path d="M719.553,132.617L749.201,53.987L766.914,56.492L719.553,132.617Z" style="fill:white;"/>
        </g>
        <g transform="matrix(-0.723604,0.690215,-0.690215,-0.723604,1331.76,-129.266)">
            <path d="M719.553,132.617L730.627,82.529L748.34,85.034L719.553,132.617Z" style="fill:white;"/>
        </g>
        <g transform="matrix(0.254018,-0.967199,0.967199,0.254018,344.651,828.618)">
            <path d="M719.553,132.617L730.627,82.529L748.34,85.034L719.553,132.617Z" style="fill:white;"/>
        </g>
    </g>
</svg>
