<?xml version="1.0" encoding="UTF-8" standalone="no"?>
<!DOCTYPE svg PUBLIC "-//W3C//DTD SVG 1.1//EN" "http://www.w3.org/Graphics/SVG/1.1/DTD/svg11.dtd">
<svg width="100%" height="100%" viewBox="0 0 480 480" version="1.1" xmlns="http://www.w3.org/2000/svg" xmlns:xlink="http://www.w3.org/1999/xlink" xml:space="preserve" xmlns:serif="http://www.serif.com/" style="fill-rule:evenodd;clip-rule:evenodd;stroke-linejoin:round;stroke-miterlimit:2;">
    <g transform="matrix(1.55172,0,0,1.55172,-136.294,-291.121)">
        <g transform="matrix(0.41915,0,0,0.41915,28.5571,20.3808)">
            <rect x="360.302" y="476.986" width="300.791" height="150.216" style="fill:white;"/>
        </g>
        <g transform="matrix(0.346396,0,0,0.268913,64.7704,290.015)">
            <rect x="360.302" y="476.986" width="300.791" height="150.216" style="fill:white;"/>
        </g>
        <g transform="matrix(0.41915,0,0,1.00388,27.7916,-185.284)">
            <rect x="360.302" y="476.986" width="300.791" height="150.216" style="fill:white;"/>
        </g>
        <g transform="matrix(0.0578337,0,0,0.898777,294.816,-145.432)">
            <rect x="360.302" y="476.986" width="300.791" height="150.216" style="fill:white;"/>
        </g>
        <g transform="matrix(0.0578337,0,0,0.898777,131.115,-145.432)">
            <rect x="360.302" y="476.986" width="300.791" height="150.216" style="fill:white;"/>
        </g>
        <g transform="matrix(0.41915,0,0,0.41915,28.5571,20.3808)">
            <rect x="315.147" y="511.31" width="387.448" height="76.634" style="fill:white;"/>
        </g>
        <g transform="matrix(0.202689,0,0,0.202689,138.337,138.016)">
            <rect x="360.302" y="476.986" width="300.791" height="150.216" style="fill:rgb(255,0,111);"/>
        </g>
    </g>
    <g transform="matrix(0.706763,0,0,0.706763,58.4905,40.7668)">
        <path d="M195.244,241.029C195.244,245.445 194.476,249.205 192.94,252.309C191.404,255.413 189.308,257.925 186.652,259.845C183.996,261.765 180.892,263.173 177.34,264.069C173.788,264.965 169.964,265.413 165.868,265.413L165.868,280.677L145.42,280.677L145.42,216.645L165.868,216.645C169.964,216.645 173.788,217.093 177.34,217.989C180.892,218.885 183.996,220.293 186.652,222.213C189.308,224.133 191.404,226.645 192.94,229.749C194.476,232.853 195.244,236.613 195.244,241.029ZM185.932,241.029C185.932,238.149 185.436,235.653 184.444,233.541C183.452,231.429 182.06,229.701 180.268,228.357C178.476,227.013 176.348,226.005 173.884,225.333C171.42,224.661 168.748,224.325 165.868,224.325L155.02,224.325L155.02,272.997L157.516,272.997L157.516,257.733L165.868,257.733C168.748,257.733 171.42,257.397 173.884,256.725C176.348,256.053 178.476,255.045 180.268,253.701C182.06,252.357 183.452,250.629 184.444,248.517C185.436,246.405 185.932,243.909 185.932,241.029ZM183.244,241.029C183.244,243.781 182.764,246.085 181.804,247.941C180.844,249.797 179.564,251.269 177.964,252.357C176.364,253.445 174.524,254.229 172.444,254.709C170.364,255.189 168.172,255.429 165.868,255.429L157.516,255.429L157.516,226.629L165.868,226.629C168.172,226.629 170.364,226.869 172.444,227.349C174.524,227.829 176.364,228.613 177.964,229.701C179.564,230.789 180.844,232.261 181.804,234.117C182.764,235.973 183.244,238.277 183.244,241.029ZM165.868,248.133L166.732,248.133C169.42,248.133 171.356,247.509 172.54,246.261C173.724,245.013 174.316,243.269 174.316,241.029C174.316,238.789 173.724,237.045 172.54,235.797C171.356,234.549 169.42,233.925 166.732,233.925L165.868,233.925L165.868,248.133Z" style="fill:rgb(255,0,111);fill-rule:nonzero;"/>
    </g>
    <g transform="matrix(0.706763,0,0,0.706763,60.8647,40.0238)">
        <path d="M226.252,282.309C222.22,282.309 218.572,281.797 215.308,280.773C212.044,279.749 209.26,278.213 206.956,276.165C204.652,274.117 202.876,271.525 201.628,268.389C200.38,265.253 199.756,261.573 199.756,257.349L199.756,216.645L220.204,216.645L220.204,256.485C220.204,258.725 220.668,260.437 221.596,261.621C222.524,262.805 224.076,263.397 226.252,263.397C228.428,263.397 229.98,262.805 230.908,261.621C231.836,260.437 232.3,258.725 232.3,256.485L232.3,216.645L252.844,216.645L252.844,257.349C252.844,261.573 252.22,265.253 250.972,268.389C249.724,271.525 247.932,274.117 245.596,276.165C243.26,278.213 240.46,279.749 237.196,280.773C233.932,281.797 230.284,282.309 226.252,282.309ZM226.252,270.789C216.652,270.789 211.852,266.085 211.852,256.677L211.852,224.325L209.356,224.325L209.356,256.677C209.356,262.053 210.812,266.165 213.724,269.013C216.636,271.861 220.812,273.285 226.252,273.285C231.692,273.285 235.884,271.861 238.828,269.013C241.772,266.165 243.244,262.053 243.244,256.677L243.244,224.325L240.652,224.325L240.652,256.677C240.652,266.085 235.852,270.789 226.252,270.789Z" style="fill-rule:nonzero;"/>
    </g>
    <g transform="matrix(0.706763,0,0,0.706763,64.231,40.0238)">
        <path d="M265.324,272.325C266.22,272.517 267.18,272.677 268.204,272.805C269.1,272.933 270.044,273.045 271.036,273.141C272.028,273.237 273.036,273.285 274.06,273.285C275.852,273.285 277.596,273.077 279.292,272.661C280.988,272.245 282.508,271.557 283.852,270.597C285.196,269.637 286.268,268.405 287.068,266.901C287.868,265.397 288.268,263.557 288.268,261.381C288.268,259.525 287.804,257.765 286.876,256.101C285.948,254.437 284.764,252.837 283.324,251.301C281.884,249.765 280.348,248.293 278.716,246.885C277.084,245.477 275.548,244.053 274.108,242.613C272.668,241.173 271.484,239.733 270.556,238.293C269.628,236.853 269.164,235.365 269.164,233.829C269.164,231.525 269.9,229.749 271.372,228.501C272.844,227.253 275.212,226.629 278.476,226.629C278.988,226.629 279.516,226.645 280.06,226.677C280.604,226.709 281.132,226.757 281.644,226.821C282.156,226.885 282.668,226.917 283.18,226.917L283.18,224.421C282.732,224.421 282.252,224.389 281.74,224.325C281.292,224.261 280.796,224.213 280.252,224.181C279.708,224.149 279.148,224.133 278.572,224.133C275.116,224.133 272.268,224.917 270.028,226.485C267.788,228.053 266.668,230.501 266.668,233.829C266.668,235.621 267.132,237.301 268.06,238.869C268.988,240.437 270.172,241.973 271.612,243.477C273.052,244.981 274.588,246.437 276.22,247.845C277.852,249.253 279.388,250.677 280.828,252.117C282.268,253.557 283.452,255.045 284.38,256.581C285.308,258.117 285.772,259.717 285.772,261.381C285.772,264.453 284.732,266.789 282.652,268.389C280.572,269.989 277.708,270.789 274.06,270.789C271.884,270.789 269.9,270.629 268.108,270.309C267.148,270.181 266.22,270.021 265.324,269.829L265.324,272.325ZM257.26,260.805C258.668,261.253 260.14,261.605 261.676,261.861C262.956,262.181 264.412,262.437 266.044,262.629C267.676,262.821 269.324,262.917 270.988,262.917C273.932,262.917 275.404,261.829 275.404,259.653C275.404,258.821 274.956,257.973 274.06,257.109C273.164,256.245 272.028,255.285 270.652,254.229C269.276,253.173 267.804,252.005 266.236,250.725C264.668,249.445 263.196,247.973 261.82,246.309C260.444,244.645 259.308,242.773 258.412,240.693C257.516,238.613 257.068,236.229 257.068,233.541C257.068,230.533 257.612,227.877 258.7,225.573C259.788,223.269 261.292,221.349 263.212,219.813C265.132,218.277 267.388,217.109 269.98,216.309C272.572,215.509 275.34,215.109 278.284,215.109C279.82,215.109 281.356,215.189 282.892,215.349C284.428,215.509 285.804,215.653 287.02,215.781C288.428,215.973 289.804,216.165 291.148,216.357L291.148,234.309C290.636,234.245 290.06,234.181 289.42,234.117C288.908,234.053 288.332,233.989 287.692,233.925C287.052,233.861 286.38,233.829 285.676,233.829C285.292,233.829 284.812,233.845 284.236,233.877C283.66,233.909 283.116,233.989 282.604,234.117C282.092,234.245 281.644,234.469 281.26,234.789C280.876,235.109 280.684,235.557 280.684,236.133C280.684,236.645 281.116,237.285 281.98,238.053C282.844,238.821 283.9,239.717 285.148,240.741C286.396,241.765 287.772,242.949 289.276,244.293C290.78,245.637 292.156,247.173 293.404,248.901C294.652,250.629 295.708,252.581 296.572,254.757C297.436,256.933 297.868,259.365 297.868,262.053C297.868,264.869 297.42,267.509 296.524,269.973C295.628,272.437 294.236,274.581 292.348,276.405C290.46,278.229 288.044,279.669 285.1,280.725C282.156,281.781 278.668,282.309 274.636,282.309C272.204,282.309 269.948,282.197 267.868,281.973C265.788,281.749 263.948,281.477 262.348,281.157C260.492,280.837 258.796,280.453 257.26,280.005L257.26,260.805Z" style="fill:rgb(148,0,255);fill-rule:nonzero;"/>
    </g>
    <g transform="matrix(0.706763,0,0,0.706763,68.5441,40.0238)">
        <path d="M302.188,216.645L322.636,216.645L322.636,238.437L334.06,238.437L334.06,216.645L354.604,216.645L354.604,280.677L334.06,280.677L334.06,256.965L322.636,256.965L322.636,280.677L302.188,280.677L302.188,216.645ZM314.284,272.997L314.284,248.709L342.508,248.709L342.508,272.997L345.004,272.997L345.004,224.325L342.508,224.325L342.508,246.405L314.284,246.405L314.284,224.325L311.788,224.325L311.788,272.997L314.284,272.997Z" style="fill-rule:nonzero;"/>
    </g>
    <g transform="matrix(1.60503,0,0,1.60503,-450.111,-97.1517)">
        <path d="M380.524,216.645L402.22,216.645L402.22,280.677L380.524,280.677L380.524,216.645ZM392.62,272.997L392.62,224.325L390.124,224.325L390.124,272.997L392.62,272.997Z" style="fill:rgb(255,162,0);fill-rule:nonzero;"/>
    </g>
    <g transform="matrix(1.60503,0,0,1.60503,-447.364,-97.1517)">
        <path d="M417.388,233.445L405.58,233.445L405.58,216.645L450.316,216.645L450.316,233.445L438.508,233.445L438.508,280.677L417.388,280.677L417.388,233.445ZM429.196,272.997L429.196,226.629L442.924,226.629L442.924,224.325L412.972,224.325L412.972,226.629L426.7,226.629L426.7,272.997L429.196,272.997Z" style="fill-rule:nonzero;"/>
    </g>
    <g transform="matrix(1.60503,0,0,1.60503,-446.169,-97.1517)">
        <path d="M455.116,216.645L477.004,216.645L473.74,261.765L458.38,261.765L455.116,216.645ZM467.212,255.717L467.212,223.749L464.908,223.749L464.908,255.717L467.212,255.717ZM455.788,264.645L476.332,264.645L476.332,280.677L455.788,280.677L455.788,264.645ZM470.572,273.765L470.572,271.557L461.548,271.557L461.548,273.765L470.572,273.765Z" style="fill:rgb(55,255,0);fill-rule:nonzero;"/>
    </g>
</svg>
