<?xml version="1.0" encoding="UTF-8" standalone="no"?>
<!DOCTYPE svg PUBLIC "-//W3C//DTD SVG 1.1//EN" "http://www.w3.org/Graphics/SVG/1.1/DTD/svg11.dtd">
<svg width="100%" height="100%" viewBox="0 0 1080 1080" version="1.1" xmlns="http://www.w3.org/2000/svg" xmlns:xlink="http://www.w3.org/1999/xlink" xml:space="preserve" xmlns:serif="http://www.serif.com/" style="fill-rule:evenodd;clip-rule:evenodd;stroke-linejoin:round;stroke-miterlimit:2;">
    <g transform="matrix(7.48686e-17,1.2227,-1.22829,7.5211e-17,955.144,-126.106)">
        <path d="M186.093,341.947C193.062,301.433 361.362,208.363 416.694,183.079C433.826,169.155 440.658,200.872 438.798,287.17C438.798,287.17 541.658,275.41 605.667,267.443C703.543,255.259 884.214,222.077 884.214,222.077C906.271,238.035 909.574,437.914 893.144,450.376C893.144,450.376 717.046,423.128 611.405,412.627C564.503,407.965 440.884,404.357 440.884,404.357C438.456,469.663 445.131,511.952 416.644,513.137C321.375,455.921 194.35,371.865 186.093,341.947Z" style="fill:rgb(62,0,228);"/>
    </g>
    <g transform="matrix(6.46991e-17,1.05662,-1.06145,6.4995e-17,897.329,-69.4439)">
        <path d="M186.093,341.947C193.062,301.433 361.362,208.363 416.694,183.079C433.826,169.155 440.658,200.872 438.798,287.17C438.798,287.17 538.533,285.047 602.543,277.079C700.418,264.896 950.607,229.068 950.607,229.068C972.664,245.025 981.289,441.624 964.859,454.086C964.859,454.086 721.594,421.029 615.953,410.528C569.051,405.866 440.884,404.357 440.884,404.357C438.456,469.663 445.131,511.952 416.644,513.137C321.375,455.921 194.35,371.865 186.093,341.947Z" style="fill:white;"/>
    </g>
</svg>
