<?xml version="1.0" encoding="UTF-8" standalone="no"?>
<!DOCTYPE svg PUBLIC "-//W3C//DTD SVG 1.1//EN" "http://www.w3.org/Graphics/SVG/1.1/DTD/svg11.dtd">
<svg width="100%" height="100%" viewBox="0 0 1080 1080" version="1.1" xmlns="http://www.w3.org/2000/svg" xmlns:xlink="http://www.w3.org/1999/xlink" xml:space="preserve" xmlns:serif="http://www.serif.com/" style="fill-rule:evenodd;clip-rule:evenodd;stroke-linejoin:round;stroke-miterlimit:2;">
    <g transform="matrix(1,0,0,1,-11.0711,1.81606)">
        <path d="M-30.617,381.079L325.487,315.558L326.909,392.213C326.909,392.213 332.295,420.128 371.693,424.571C411.091,429.014 697.679,420.602 697.679,420.602C697.679,420.602 737.794,406.841 736.047,377.878C734.3,348.914 735.498,319.857 735.498,319.857C735.498,319.857 729.126,334.885 540,336.477C350.874,338.068 325.487,315.558 325.487,315.558" style="fill:rgb(208,255,194);"/>
    </g>
    <g transform="matrix(7.48686e-17,1.2227,-1.22829,7.5211e-17,943.33,-194.817)">
        <path d="M278.569,337.986C283.118,312.49 350.756,236.67 416.694,183.079C433.826,169.155 440.658,200.872 438.798,287.17L630.662,192.139L849.246,89.843C871.303,105.801 878.102,546.528 861.672,558.989L625.686,472.53L440.884,404.357C438.456,469.663 445.131,511.952 416.644,513.137C345.808,437.594 276.209,351.215 278.569,337.986Z" style="fill:rgb(38,168,0);"/>
    </g>
    <g transform="matrix(1,0,0,1,-11.0711,1.81606)">
        <path d="M267.801,985.228C267.801,985.228 292.169,1029.58 555.925,1022.11C866.991,1013.3 844.048,968.203 844.048,968.203L844.048,837.884C844.048,837.884 843.334,865.608 555.925,868.063C294.882,870.294 267.801,851.333 267.801,851.333L267.801,985.228Z" style="fill:rgb(197,255,181);"/>
    </g>
</svg>
