<?xml version="1.0" encoding="UTF-8" standalone="no"?>
<!DOCTYPE svg PUBLIC "-//W3C//DTD SVG 1.1//EN" "http://www.w3.org/Graphics/SVG/1.1/DTD/svg11.dtd">
<svg width="100%" height="100%" viewBox="0 0 1080 1080" version="1.1" xmlns="http://www.w3.org/2000/svg" xmlns:xlink="http://www.w3.org/1999/xlink" xml:space="preserve" xmlns:serif="http://www.serif.com/" style="fill-rule:evenodd;clip-rule:evenodd;stroke-linejoin:round;stroke-miterlimit:2;">
    <g transform="matrix(-1.11388,0,0,1.11897,1104.04,-46.1418)">
        <path d="M186.093,341.947C193.062,301.433 361.362,208.363 416.694,183.079C433.826,169.155 437.392,191.419 435.531,277.716C435.531,277.716 801.168,320.962 865.309,563.225C929.451,805.488 861.495,940.435 861.495,940.435C886.241,999.097 595.927,896.959 595.28,846.387C595.28,846.387 655.04,559.403 584.394,480.513C513.748,401.624 440.884,404.357 440.884,404.357C438.456,469.663 445.131,511.952 416.644,513.137C321.375,455.921 194.35,371.865 186.093,341.947Z" style="fill:white;"/>
    </g>
</svg>
