<?xml version="1.0" encoding="UTF-8" standalone="no"?>
<!DOCTYPE svg PUBLIC "-//W3C//DTD SVG 1.1//EN" "http://www.w3.org/Graphics/SVG/1.1/DTD/svg11.dtd">
<svg width="100%" height="100%" viewBox="0 0 1080 1080" version="1.1" xmlns="http://www.w3.org/2000/svg" xmlns:xlink="http://www.w3.org/1999/xlink" xml:space="preserve" xmlns:serif="http://www.serif.com/" style="fill-rule:evenodd;clip-rule:evenodd;stroke-linejoin:round;stroke-miterlimit:2;">
    <g transform="matrix(-1,0,0,1,993.027,-45.9418)">
        <path d="M388.844,466.386C388.844,466.386 495.51,452.978 607.074,626.009C648.133,689.69 565.177,899.768 565.177,899.768C565.177,899.768 565.472,959.762 565.525,983.42C565.603,1017.87 776.47,1112.63 823.101,1090.58C839.904,1082.63 862.115,1010.07 862.115,1010.07C862.115,1010.07 778.108,426.223 516.926,389.905C255.744,353.588 388.844,466.386 388.844,466.386Z" style="fill:rgb(255,181,182);"/>
    </g>
    <g transform="matrix(-1.11388,0,0,1.11897,1090.81,-92.0836)">
        <path d="M186.093,341.947C193.062,301.433 361.362,208.363 416.694,183.079C433.826,169.155 437.392,191.419 435.531,277.716C435.531,277.716 801.168,320.962 865.309,563.225C929.451,805.488 861.495,940.435 861.495,940.435C886.241,999.097 595.927,896.959 595.28,846.387C595.28,846.387 655.04,559.403 584.394,480.513C513.748,401.624 440.884,404.357 440.884,404.357C438.456,469.663 445.131,511.952 416.644,513.137C321.375,455.921 194.35,371.865 186.093,341.947Z" style="fill:rgb(248,0,4);"/>
    </g>
    <g transform="matrix(-1,0,0,1,993.027,-45.9418)">
        <path d="M109.506,336.487L105.849,410.87C105.849,410.87 178.774,477.622 234.676,514.417C290.578,551.211 353.298,616.549 372.069,590.176C390.841,563.803 387.97,498.728 387.97,498.728C387.97,498.728 408.296,566.151 252.919,453.832C97.541,341.512 109.506,336.487 109.506,336.487Z" style="fill:rgb(255,181,182);"/>
    </g>
</svg>
